<?xml version="1.0" encoding="utf-8"?>
<!-- Generator: Adobe Illustrator 23.0.6, SVG Export Plug-In . SVG Version: 6.00 Build 0)  -->
<svg version="1.1" id="Layer_1" xmlns="http://www.w3.org/2000/svg" xmlns:xlink="http://www.w3.org/1999/xlink" x="0px" y="0px"
	 viewBox="0 0 24 24" style="enable-background:new 0 0 24 24;" xml:space="preserve">
<style type="text/css">
	.st0{fill:#007BFF;}
	.st1{fill:none;}
</style>
<path class="st0" d="M12,7.5C8.1,7.5,5,9,5,11c0,1.6,2.1,2.9,4.9,3.3v2.3l2.8-2.8L9.9,11v1.9c-2.2-0.4-3.5-1.3-3.5-1.9
	c0-0.7,2.1-2.1,5.6-2.1s5.6,1.4,5.6,2.1c0,0.5-1,1.3-2.8,1.8v1.4c2.5-0.5,4.2-1.8,4.2-3.2C19,9,15.9,7.5,12,7.5z"/>
<path class="st1" d="M0,0h24v24H0V0z"/>
</svg>
