<?xml version="1.0" encoding="utf-8"?>
<!-- Generator: Adobe Illustrator 23.0.6, SVG Export Plug-In . SVG Version: 6.00 Build 0)  -->
<svg version="1.1" id="Layer_1" xmlns="http://www.w3.org/2000/svg" xmlns:xlink="http://www.w3.org/1999/xlink" x="0px" y="0px"
	 viewBox="0 0 24 24" style="enable-background:new 0 0 24 24;" xml:space="preserve">
<style type="text/css">
	.st0{fill:#007BFF;}
	.st1{fill:none;}
</style>
<circle class="st0" cx="10.3" cy="10.6" r="2.3"/>
<path class="st0" d="M10.3,14c-1.5,0-4.5,0.8-4.5,2.3v1.1h9v-1.1C14.8,14.7,11.8,14,10.3,14z M14.7,8.5l-0.9,1
	c0.5,0.7,0.5,1.5,0,2.2l0.9,1C15.8,11.5,15.8,9.8,14.7,8.5z M16.5,6.7l-0.9,0.9c1.6,1.7,1.6,4.3,0,6l0.9,0.9
	C18.7,12.3,18.7,8.9,16.5,6.7z"/>
<path class="st1" d="M0,0h24v24H0V0z"/>
</svg>
