<svg width="130" height="34" viewBox="0 0 130 34" fill="none" xmlns="http://www.w3.org/2000/svg">
<g clip-path="url(#clip0)">
<path d="M7.66113 27L-0.0146484 5.52539H4.6875L10.1221 21.4189L15.3809 5.52539H19.9805L12.29 27H7.66113ZM21.6844 19.002C21.6844 17.6348 22.0213 16.3115 22.6951 15.0322C23.3689 13.7529 24.3211 12.7764 25.5516 12.1025C26.7918 11.4287 28.1736 11.0918 29.6971 11.0918C32.0506 11.0918 33.9793 11.8584 35.4832 13.3916C36.9871 14.915 37.7391 16.8438 37.7391 19.1777C37.7391 21.5312 36.9773 23.4844 35.4539 25.0371C33.9402 26.5801 32.0311 27.3516 29.7264 27.3516C28.3006 27.3516 26.9383 27.0293 25.6395 26.3848C24.3504 25.7402 23.3689 24.7979 22.6951 23.5576C22.0213 22.3076 21.6844 20.7891 21.6844 19.002ZM25.9031 19.2217C25.9031 20.7646 26.2693 21.9463 27.0018 22.7666C27.7342 23.5869 28.6375 23.9971 29.7117 23.9971C30.7859 23.9971 31.6844 23.5869 32.407 22.7666C33.1395 21.9463 33.5057 20.7549 33.5057 19.1924C33.5057 17.6689 33.1395 16.4971 32.407 15.6768C31.6844 14.8564 30.7859 14.4463 29.7117 14.4463C28.6375 14.4463 27.7342 14.8564 27.0018 15.6768C26.2693 16.4971 25.9031 17.6787 25.9031 19.2217ZM43.5299 27V5.52539H47.6461V16.9219L52.4654 11.4434H57.5338L52.2164 17.127L57.9146 27H53.4762L49.565 20.0127L47.6461 22.0195V27H43.5299ZM66.1518 16.1895L62.4164 15.5156C62.8363 14.0117 63.559 12.8984 64.5844 12.1758C65.6098 11.4531 67.1332 11.0918 69.1547 11.0918C70.9906 11.0918 72.3578 11.3115 73.2562 11.751C74.1547 12.1807 74.7846 12.7324 75.1459 13.4062C75.517 14.0703 75.7025 15.2959 75.7025 17.083L75.6586 21.8877C75.6586 23.2549 75.7221 24.2656 75.849 24.9199C75.9857 25.5645 76.2348 26.2578 76.5961 27H72.5238C72.4164 26.7266 72.2846 26.3213 72.1283 25.7842C72.06 25.54 72.0111 25.3789 71.9818 25.3008C71.2787 25.9844 70.5268 26.4971 69.726 26.8389C68.9252 27.1807 68.0707 27.3516 67.1625 27.3516C65.5609 27.3516 64.2963 26.917 63.3686 26.0479C62.4506 25.1787 61.9916 24.0801 61.9916 22.752C61.9916 21.873 62.2016 21.0918 62.6215 20.4082C63.0414 19.7148 63.6273 19.1875 64.3793 18.8262C65.141 18.4551 66.2348 18.1328 67.6605 17.8594C69.5844 17.498 70.9174 17.1611 71.6596 16.8486V16.4385C71.6596 15.6475 71.4643 15.0859 71.0736 14.7539C70.683 14.4121 69.9457 14.2412 68.8617 14.2412C68.1293 14.2412 67.558 14.3877 67.1479 14.6807C66.7377 14.9639 66.4057 15.4668 66.1518 16.1895ZM71.6596 19.5293C71.1322 19.7051 70.2973 19.915 69.1547 20.1592C68.0121 20.4033 67.265 20.6426 66.9135 20.877C66.3764 21.2578 66.1078 21.7412 66.1078 22.3271C66.1078 22.9033 66.3227 23.4014 66.7523 23.8213C67.182 24.2412 67.7289 24.4512 68.393 24.4512C69.1352 24.4512 69.8432 24.207 70.517 23.7188C71.015 23.3477 71.3422 22.8936 71.4984 22.3564C71.6059 22.0049 71.6596 21.3359 71.6596 20.3496V19.5293ZM82.4748 27V5.52539H86.591V27H82.4748Z" fill="#FFC045"/>
<path d="M113.2 24H115.6V9H113.2V24ZM118 29H120.4V4H118V29ZM108.4 19H110.8V14H108.4V19ZM122.8 24H125.2V9H122.8V24ZM127.6 14V19H130V14H127.6Z" fill="#FFC045"/>
<path d="M98.8 24H101.2V9H98.8V24ZM103.6 29H106V4H103.6V29ZM94 19H96.4V14H94V19Z" fill="#FFC045"/>
</g>
<defs>
<clipPath id="clip0">
<rect width="130" height="34" fill="white"/>
</clipPath>
</defs>
</svg>
