<?xml version="1.0" encoding="utf-8"?>
<!-- Generator: Adobe Illustrator 23.0.6, SVG Export Plug-In . SVG Version: 6.00 Build 0)  -->
<svg version="1.1" id="Layer_1" xmlns="http://www.w3.org/2000/svg" xmlns:xlink="http://www.w3.org/1999/xlink" x="0px" y="0px"
	 viewBox="0 0 13.2 13.2" style="enable-background:new 0 0 13.2 13.2;" xml:space="preserve">
<style type="text/css">
	.st0{fill:none;}
	.st1{fill:#BEDDFE;}
</style>
<path class="st0" d="M0.8-0.4h24v24h-24V-0.4z"/>
<path class="st1" d="M6.9,3.7c1,0,1.4,0.5,1.4,1.2h1.2c0-1-0.6-1.9-1.8-2.1V1.5H6v1.2C5.7,2.8,5.5,2.9,5.2,3L6,3.9
	C6.3,3.8,6.5,3.7,6.9,3.7z M2.8,2.1L2.1,2.8l1.9,1.9c0,1.2,0.9,1.8,2.2,2.2l2,2C8,9.2,7.6,9.5,6.9,9.5C5.7,9.5,5.3,9,5.2,8.3H4
	c0.1,1.2,1,1.9,2.1,2.2v1.2h1.7v-1.2c0.5-0.1,1-0.3,1.4-0.6l1.3,1.3l0.7-0.7L2.8,2.1z"/>
</svg>
